<svg width="22" height="19" viewBox="0 0 22 19" fill="none" xmlns="http://www.w3.org/2000/svg">
<path fill-rule="evenodd" clip-rule="evenodd" d="M11.5285 18.6423L19.4932 10.5874C21.7075 8.29786 21.7075 4.75933 19.4932 2.46981C18.4428 1.38746 16.9709 0.771622 15.4288 0.769339C14.0237 0.770898 12.6765 1.28126 11.6526 2.18965C11.5518 2.27899 11.4543 2.37218 11.3601 2.46912L11.0015 2.83232L10.643 2.46912C10.5466 2.36962 10.4471 2.27445 10.3448 2.18362C8.23358 0.308414 4.93816 0.284066 2.79525 2.19279C2.6957 2.2815 2.59955 2.37364 2.50701 2.46912C0.292586 4.75888 0.292586 8.29762 2.50701 10.5874L10.4746 18.6423C10.7503 18.9213 11.2097 18.9333 11.5007 18.669C11.5102 18.6604 11.5195 18.6515 11.5285 18.6423ZM3.16709 9.9421L11.0015 17.8624L18.8331 9.94212C20.6976 8.01057 20.6967 5.04276 18.8303 3.11223C17.958 2.21367 16.7272 1.69466 15.4286 1.69242C14.1285 1.69418 12.8959 2.21321 12.0221 3.11243L12.017 3.11762L11.0015 4.14626L9.98012 3.11157C8.23874 1.31486 5.28856 1.20825 3.40936 2.88195M3.16709 9.9421C1.30229 8.01019 1.30333 5.04195 3.1702 3.11118C3.24673 3.03224 3.32659 2.95571 3.40936 2.88195" fill="#444444"/>
</svg>
